<mxfile host="app.diagrams.net" agent="Mozilla/5.0 (Windows NT 10.0; Win64; x64) AppleWebKit/537.36 (KHTML, like Gecko) Chrome/136.0.0.0 Safari/537.36" version="26.2.14">
  <diagram name="Page-1" id="ZaLZ7NMNwppFlWbKyMPS">
    <mxGraphModel dx="1426" dy="743" grid="1" gridSize="10" guides="1" tooltips="1" connect="1" arrows="1" fold="1" page="1" pageScale="1" pageWidth="827" pageHeight="1169" math="0" shadow="0">
      <root>
        <mxCell id="0" />
        <mxCell id="1" parent="0" />
        <mxCell id="db7aIP_NzUAPKhlPKJ1t-2" value="" style="shape=cylinder3;whiteSpace=wrap;html=1;boundedLbl=1;backgroundOutline=1;size=15;" vertex="1" parent="1">
          <mxGeometry x="354" y="320" width="60" height="90" as="geometry" />
        </mxCell>
        <mxCell id="db7aIP_NzUAPKhlPKJ1t-3" value="Derived Resident Activities&lt;div&gt;&lt;br&gt;&lt;/div&gt;&lt;div style=&quot;text-align: left;&quot;&gt;&lt;ul&gt;&lt;li&gt;dra_id&lt;/li&gt;&lt;li&gt;dra_resident&lt;/li&gt;&lt;li&gt;dra_essence_device&lt;/li&gt;&lt;li&gt;dra_disruptive_device&lt;/li&gt;&lt;li&gt;dra_timestamp_start&lt;/li&gt;&lt;li&gt;dra_timestamp_end&lt;/li&gt;&lt;/ul&gt;&lt;/div&gt;" style="text;html=1;align=center;verticalAlign=middle;whiteSpace=wrap;rounded=0;strokeColor=default;" vertex="1" parent="1">
          <mxGeometry x="420" y="320" width="180" height="170" as="geometry" />
        </mxCell>
        <mxCell id="db7aIP_NzUAPKhlPKJ1t-10" style="edgeStyle=orthogonalEdgeStyle;rounded=0;orthogonalLoop=1;jettySize=auto;html=1;entryX=0.5;entryY=0;entryDx=0;entryDy=0;dashed=1;endArrow=none;startFill=0;" edge="1" parent="1" source="db7aIP_NzUAPKhlPKJ1t-4" target="db7aIP_NzUAPKhlPKJ1t-8">
          <mxGeometry relative="1" as="geometry" />
        </mxCell>
        <mxCell id="db7aIP_NzUAPKhlPKJ1t-4" value="Evergreen" style="rounded=0;whiteSpace=wrap;html=1;" vertex="1" parent="1">
          <mxGeometry x="120" y="160" width="120" height="60" as="geometry" />
        </mxCell>
        <mxCell id="db7aIP_NzUAPKhlPKJ1t-5" style="edgeStyle=orthogonalEdgeStyle;rounded=0;orthogonalLoop=1;jettySize=auto;html=1;entryX=0.5;entryY=0;entryDx=0;entryDy=0;entryPerimeter=0;" edge="1" parent="1" source="db7aIP_NzUAPKhlPKJ1t-4" target="db7aIP_NzUAPKhlPKJ1t-2">
          <mxGeometry relative="1" as="geometry" />
        </mxCell>
        <mxCell id="db7aIP_NzUAPKhlPKJ1t-7" style="edgeStyle=orthogonalEdgeStyle;rounded=0;orthogonalLoop=1;jettySize=auto;html=1;" edge="1" parent="1" source="db7aIP_NzUAPKhlPKJ1t-6" target="db7aIP_NzUAPKhlPKJ1t-2">
          <mxGeometry relative="1" as="geometry" />
        </mxCell>
        <mxCell id="db7aIP_NzUAPKhlPKJ1t-6" value="Dogwood" style="rounded=0;whiteSpace=wrap;html=1;" vertex="1" parent="1">
          <mxGeometry x="520" y="160" width="120" height="60" as="geometry" />
        </mxCell>
        <mxCell id="db7aIP_NzUAPKhlPKJ1t-8" value="&lt;ul&gt;&lt;li&gt;&lt;b&gt;dra_resident&lt;/b&gt;: NULL | BIGINT&lt;/li&gt;&lt;li&gt;&lt;b&gt;dra_essence_device&lt;/b&gt;: BIGINT&lt;/li&gt;&lt;li&gt;&lt;b&gt;dra_disruptive_device&lt;/b&gt;: NULL&lt;/li&gt;&lt;li&gt;&lt;b&gt;dra_timestamp_start: &lt;/b&gt;DATE&lt;/li&gt;&lt;li&gt;&lt;b&gt;dra_timestamp_end: &lt;/b&gt;DATE&lt;/li&gt;&lt;/ul&gt;" style="text;html=1;align=left;verticalAlign=middle;whiteSpace=wrap;rounded=0;strokeColor=default;dashed=1;dashPattern=8 8;" vertex="1" parent="1">
          <mxGeometry x="60" y="260" width="240" height="90" as="geometry" />
        </mxCell>
      </root>
    </mxGraphModel>
  </diagram>
</mxfile>
